<svg xmlns="http://www.w3.org/2000/svg" width="209.692" height="82.993" viewBox="0 0 209.692 82.993"><g id="logo" transform="translate(-176.7 -196.266)"><g id="Group_6" data-name="Group 6"><path id="Path_2" data-name="Path 2" d="M609.242,222.109a27.639,27.639,0,1,0-27.593,29.435h9.621V239.18h0a1.817,1.817,0,0,0-1.8-1.8H581.9a13.724,13.724,0,0,1-13.756-13.715,13.47,13.47,0,1,1,26.938.246l-.041,37.869a2.245,2.245,0,0,0,2.252,2.252h9.621a2.245,2.245,0,0,0,2.252-2.252l.041-37.869v-1.8h.041Z" transform="translate(-222.852)" fill="#6640fd"></path><path id="Path_3" data-name="Path 3" d="M476.1,328.3H404.584a2.787,2.787,0,0,0-2.784,2.784v8.229a2.787,2.787,0,0,0,2.784,2.784H476.1a2.787,2.787,0,0,0,2.784-2.784v-8.229A2.787,2.787,0,0,0,476.1,328.3Z" transform="translate(-132.946 -77.984)" fill="#6640fd"></path><circle id="Ellipse_1" data-name="Ellipse 1" cx="6.509" cy="6.509" r="6.509" transform="translate(300.868 266.241)" fill="#6640fd"></circle></g><g id="Group_5" data-name="Group 5"><path id="Path_4" data-name="Path 4" d="M379.8,227.9c0-14.083-11.79-25.505-26.324-25.505H342.5v12.855h10.972a12.616,12.616,0,1,1,0,25.218H342.5v12.855h10.972C368.005,253.369,379.8,241.947,379.8,227.9Z" transform="translate(-97.923 -3.627)" fill="#fe346e"></path><path id="Path_5" data-name="Path 5" d="M381.474,224.211A27.544,27.544,0,0,0,353.963,196.7H342.5v13.878h11.463a13.633,13.633,0,1,1,0,27.265H342.5v13.878h11.463a27.518,27.518,0,0,0,27.511-27.51Z" transform="translate(-97.923 -0.26)" fill="#fe346e"></path><path id="Path_6" data-name="Path 6" d="M183,211.888h36.64c3.48,0,6.3-3.152,6.3-7.042v-1.1c0-3.889-2.825-7.042-6.3-7.042H183c-3.48,0-6.3,3.152-6.3,7.042v1.1C176.7,208.736,179.525,211.888,183,211.888Z" transform="translate(0 -0.26)" fill="#fe346e"></path><path id="Path_7" data-name="Path 7" d="M224.189,280.861h-24.85a9.79,9.79,0,0,1,0-19.569h56.946a6.8,6.8,0,1,0,0-13.592H199.339c-12.486,0-22.639,10.48-22.639,23.376s10.153,23.376,22.639,23.376h26.692v-11.79a1.853,1.853,0,0,0-1.842-1.8Z" transform="translate(0 -30.381)" fill="#fe346e"></path><circle id="Ellipse_2" data-name="Ellipse 2" cx="6.509" cy="6.509" r="6.509" transform="translate(194.836 266.241)" fill="#fe346e"></circle><circle id="Ellipse_3" data-name="Ellipse 3" cx="6.509" cy="6.509" r="6.509" transform="translate(228.611 197.095)" fill="#fe346e"></circle></g></g></svg>